<svg width="264" height="88" viewBox="0 0 264 88" xmlns="http://www.w3.org/2000/svg"><title>default-skin</title><defs><filter x="-50%" y="-50%" width="200%" height="200%" filterUnits="objectBoundingBox" id="a"><feMorphology radius="1" in="SourceAlpha" operator="dilate" result="shadowSpreadOuter1"/><feOffset dy="1" in="shadowSpreadOuter1" result="shadowOffsetOuter1"/><feGaussianBlur stdDeviation=".5" in="shadowOffsetOuter1" result="shadowBlurOuter1"/><feColorMatrix values="0 0 0 0 0 0 0 0 0 0 0 0 0 0 0 0 0 0 0.35 0" in="shadowBlurOuter1" result="shadowMatrixOuter1"/><feMerge><feMergeNode in="shadowMatrixOuter1"/><feMergeNode in="SourceGraphic"/></feMerge></filter><filter x="-50%" y="-50%" width="200%" height="200%" filterUnits="objectBoundingBox" id="b"><feOffset in="SourceAlpha" result="shadowOffsetOuter1"/><feGaussianBlur stdDeviation="2" in="shadowOffsetOuter1" result="shadowBlurOuter1"/><feColorMatrix values="0 0 0 0 0 0 0 0 0 0 0 0 0 0 0 0 0 0 0.56 0" in="shadowBlurOuter1" result="shadowMatrixOuter1"/><feMerge><feMergeNode in="shadowMatrixOuter1"/><feMergeNode in="SourceGraphic"/></feMerge></filter><filter x="-50%" y="-50%" width="200%" height="200%" filterUnits="objectBoundingBox" id="c"><feOffset in="SourceAlpha" result="shadowOffsetOuter1"/><feGaussianBlur stdDeviation="2" in="shadowOffsetOuter1" result="shadowBlurOuter1"/><feColorMatrix values="0 0 0 0 0 0 0 0 0 0 0 0 0 0 0 0 0 0 0.56 0" in="shadowBlurOuter1" result="shadowMatrixOuter1"/><feMerge><feMergeNode in="shadowMatrixOuter1"/><feMergeNode in="SourceGraphic"/></feMerge></filter></defs><g fill="none" fill-rule="evenodd"><path d="M67.002 59.5v3.768c-6.307.84-9.184 5.75-10.002 9.732 2.22-2.83 5.564-5.098 10.002-5.098V71.5L73 65.585 67.002 59.5zM13 29v-5h2v3h3v2h-5zm0-14h5v2h-3v3h-2v-5zm18 0v5h-2v-3h-3v-2h5zm0 14h-5v-2h3v-3h2v5zM62 24v5h-2v-3h-3v-2h5zm0-4h-5v-2h3v-3h2v5zm8 0v-5h2v3h3v2h-5zm0 4h5v2h-3v3h-2v-5z" fill="#FFF"/><path d="M7.586 51L1.93 45.344l1.414-1.414L9 49.586l5.656-5.656 1.414 1.414L10.414 51l5.656 5.656-1.414 1.414L9 52.414 3.344 58.07 1.93 56.656 7.586 51z" fill="#FFF" filter="url(#a)" transform="translate(13 15)"/><path d="M134.607 45.285a1.896 1.896 0 0 1 0-2.767l8.377-7.983a1.87 1.87 0 0 1 2.748.137l.127.15c.715.84.624 2.113-.205 2.845l-7.06 6.234 7.06 6.236a2.04 2.04 0 0 1 .204 2.845l-.128.15c-.716.84-1.952.897-2.748.138l-8.377-7.983z" fill="#FFF" filter="url(#b)" transform="translate(13 15)"/><path d="M92.605 45.285a1.896 1.896 0 0 1 0-2.767l8.376-7.983a1.87 1.87 0 0 1 2.75.137l.127.15c.716.84.624 2.113-.205 2.845l-7.06 6.234 7.06 6.236a2.04 2.04 0 0 1 .205 2.845l-.128.15c-.717.84-1.952.897-2.75.138l-8.375-7.983z" fill="#FFF" filter="url(#c)" transform="matrix(-1 0 0 1 209.346 15)"/><path d="M160.957 28.543l-3.25-3.25-1.413 1.414 3.25 3.25 1.413-1.414z" fill="#FFF"/><path d="M152.5 27a5.5 5.5 0 0 0 0-11 5.5 5.5 0 0 0 0 11z" stroke="#FFF" stroke-width="1.5"/><path d="M150 21h5v1h-5v-1z" fill="#FFF"/><g><path d="M116.957 28.543l-1.414 1.414-3.25-3.25 1.414-1.414 3.25 3.25z" fill="#FFF"/><path d="M108.5 27a5.5 5.5 0 0 0 0-11 5.5 5.5 0 0 0 0 11z" stroke="#FFF" stroke-width="1.5"/><path d="M106 21h5v1h-5v-1z" fill="#FFF"/><path d="M109.043 19.008l-.085 5-1-.017.085-5 1 .018z" fill="#FFF"/></g></g></svg>