<svg width="25" height="25" viewBox="0 0 25 25" xmlns="http://www.w3.org/2000/svg"><title>icon-github</title><path d="M12.5 0C5.596 0 0 5.618 0 12.55c0 5.544 3.58 10.248 8.55 11.908.624.115.852-.273.852-.605 0-.298-.01-1.087-.017-2.134-3.477.757-4.21-1.684-4.21-1.684-.57-1.45-1.388-1.835-1.388-1.835-1.135-.778.086-.762.086-.762 1.254.088 1.914 1.293 1.914 1.293 1.115 1.92 2.926 1.365 3.638 1.043.113-.81.437-1.364.794-1.677-2.777-.317-5.695-1.393-5.695-6.202 0-1.37.487-2.49 1.287-3.368-.13-.318-.558-1.593.122-3.32 0 0 1.05-.338 3.437 1.285a11.956 11.956 0 0 1 3.13-.422 11.97 11.97 0 0 1 3.13.423c2.386-1.622 3.434-1.285 3.434-1.285.682 1.728.253 3.003.124 3.32.802.88 1.285 2 1.285 3.37 0 4.82-2.922 5.88-5.707 6.19.45.39.85 1.154.85 2.325 0 1.678-.017 3.03-.017 3.443 0 .335.224.726.86.603A12.55 12.55 0 0 0 25 12.55C25 5.618 19.403 0 12.5 0" fill="#8D9497" fill-rule="evenodd"/></svg>