<svg width="25" height="24" viewBox="0 0 25 24" xmlns="http://www.w3.org/2000/svg"><title>icon-linkedin</title><path d="M25 23.137h-5.525v-7.99c0-2.09-.865-3.518-2.765-3.518-1.454 0-2.262.962-2.64 1.89-.14.334-.118.798-.118 1.262v8.355H8.478s.07-14.152 0-15.44h5.474v2.424c.324-1.058 2.073-2.57 4.864-2.57C22.28 7.55 25 9.77 25 14.553v8.584zM2.943 5.767h-.036C1.144 5.767 0 4.587 0 3.09 0 1.567 1.177.41 2.977.41c1.797 0 2.903 1.153 2.938 2.676 0 1.496-1.14 2.68-2.972 2.68zM.63 7.697h4.873v15.44H.63V7.697z" fill="#8D9497" fill-rule="evenodd"/></svg>