<svg width="25" height="18" viewBox="0 0 25 18" xmlns="http://www.w3.org/2000/svg"><title>icon-email</title><path d="M1.183.12C1.38.045 1.59 0 1.813 0h21.375c.222 0 .433.046.63.12l-9.58 9.055a2.532 2.532 0 0 1-3.477 0L1.184.12zm23.55 16.09c.166-.273.267-.592.267-.937V1.818c0-.244-.05-.477-.137-.69L15.9 9.603l8.833 6.608zm-9.643-5.853a3.964 3.964 0 0 1-5.18 0l-8.807 6.59a1.8 1.8 0 0 0 .71.146h21.375a1.8 1.8 0 0 0 .71-.146l-8.808-6.59zM.137 1.127a1.814 1.814 0 0 0-.137.69v13.456c0 .345.1.664.267.938L9.1 9.604.137 1.128z" fill="#8D9497" fill-rule="evenodd"/></svg>