<?xml version="1.0" encoding="UTF-8" standalone="no"?>
<svg width="264px" height="88px" viewBox="0 0 264 88" version="1.1" xmlns="http://www.w3.org/2000/svg" xmlns:xlink="http://www.w3.org/1999/xlink">
    <!-- Generator: Sketch 3.8.3 (29802) - http://www.bohemiancoding.com/sketch -->
    <title>light-skin4</title>
    <desc>Created with Sketch.</desc>
    <defs></defs>
    <g id="Icons" stroke="none" stroke-width="1" fill="none" fill-rule="evenodd">
        <g id="light-skin4">
            <g id="Group" transform="translate(13.000000, 15.000000)">
                <path d="M54.002,44.5 L54.002,48.268 C47.695,49.108 44.818,54.018 44,58 C46.22,55.17 49.564,52.902 54.002,52.902 L54.002,56.5 L60,50.585 L54.002,44.5 L54.002,44.5 Z" id="Shape" fill="#9E9E9E"></path>
                <g id="Shape" fill="#9E9E9E">
                    <path d="M0,14 L0,9 L2,9 L2,12 L5,12 L5,14 L0,14 L0,14 Z M0,0 L5,0 L5,2 L2,2 L2,5 L0,5 L0,0 L0,0 Z M18,0 L18,5 L16,5 L16,2 L13,2 L13,0 L18,0 L18,0 Z M18,14 L13,14 L13,12 L16,12 L16,9 L18,9 L18,14 L18,14 Z"></path>
                </g>
                <g transform="translate(44.000000, 0.000000)" id="Shape" fill="#9E9E9E">
                    <path d="M5,9 L5,14 L3,14 L3,11 L0,11 L0,9 L5,9 L5,9 Z M5,5 L0,5 L0,3 L3,3 L3,0 L5,0 L5,5 L5,5 Z M13,5 L13,0 L15,0 L15,3 L18,3 L18,5 L13,5 L13,5 Z M13,9 L18,9 L18,11 L15,11 L15,14 L13,14 L13,9 L13,9 Z"></path>
                </g>
                <polygon id="Shape" fill="#9E9E9E" points="7.586 51 1.93 45.344 3.344 43.93 9 49.586 14.656 43.93 16.07 45.344 10.414 51 16.07 56.656 14.656 58.07 9 52.414 3.344 58.07 1.93 56.656"></polygon>
                <path d="M134.606906,45.2848463 C133.805226,44.5208338 133.810553,43.2770484 134.606906,42.5181122 L142.983766,34.5348463 C143.785446,33.7708338 145.012178,33.8280972 145.731607,34.6719649 L145.859065,34.8214698 C146.574976,35.6612108 146.483647,36.9351386 145.654502,37.6673745 L138.595336,43.9014792 L145.654502,50.135584 C146.48339,50.8675927 146.578494,52.137621 145.859065,52.9814887 L145.731607,53.1309936 C145.015696,53.9707346 143.780119,54.0270484 142.983766,53.2681122 L134.606906,45.2848463 Z" id="arrow-prev" fill="#9E9E9E"></path>
                <path d="M92.6045006,45.2848463 C91.8028205,44.5208338 91.8081471,43.2770484 92.6045006,42.5181122 L100.98136,34.5348463 C101.78304,33.7708338 103.009772,33.8280972 103.729201,34.6719649 L103.85666,34.8214698 C104.57257,35.6612108 104.481241,36.9351386 103.652097,37.6673745 L96.5929303,43.9014792 L103.652097,50.135584 C104.480984,50.8675927 104.576088,52.137621 103.85666,52.9814887 L103.729201,53.1309936 C103.013291,53.9707346 101.777714,54.0270484 100.98136,53.2681122 L92.6045006,45.2848463 Z" id="arrow-next" fill="#9E9E9E" transform="translate(98.172831, 43.899749) scale(-1, 1) translate(-98.172831, -43.899749) "></path>
                <g transform="translate(134.000000, 1.000000)">
                    <polygon id="Rectangle-11" fill="#9E9E9E" points="13.957 12.543 10.707 9.293 9.294 10.707 12.544 13.957"></polygon>
                    <path d="M5.5,11 C8.538,11 11,8.538 11,5.5 C11,2.462 8.538,0 5.5,0 C2.462,0 0,2.462 0,5.5 C0,8.538 2.462,11 5.5,11 L5.5,11 Z" id="Oval-1" stroke="#9E9E9E" stroke-width="1.5"></path>
                    <polygon id="Shape" fill="#9E9E9E" points="3 5 8 5 8 6 3 6"></polygon>
                </g>
                <g transform="translate(90.000000, 1.000000)" id="Shape">
                    <polygon fill="#9E9E9E" points="13.957 12.543 12.543 13.957 9.293 10.707 10.707 9.293"></polygon>
                    <path d="M5.5,11 C8.538,11 11,8.538 11,5.5 C11,2.462 8.538,0 5.5,0 C2.462,0 0,2.462 0,5.5 C0,8.538 2.462,11 5.5,11 L5.5,11 Z" stroke="#9E9E9E" stroke-width="1.5"></path>
                    <polygon fill="#9E9E9E" points="3 5 8 5 8 6 3 6"></polygon>
                    <polygon fill="#9E9E9E" points="6.043 3.008 5.958 8.008 4.958 7.991 5.043 2.991"></polygon>
                </g>
            </g>
        </g>
    </g>
</svg>